HIERARCHY
ROOT Hips
{
	OFFSET 0.000000 0.000000 0.000000
	CHANNELS 6 Xposition Yposition Zposition Zrotation Yrotation Xrotation 
	JOINT LHipJoint
	{
		OFFSET 0.000000 0.000000 0.000000
		CHANNELS 3 Zrotation Yrotation Xrotation
		JOINT LeftUpLeg
		{
			OFFSET 1.363060 -1.794630 0.839290
			CHANNELS 3 Zrotation Yrotation Xrotation
			JOINT LeftLeg
			{
				OFFSET 2.448110 -6.726130 0.000000
				CHANNELS 3 Zrotation Yrotation Xrotation
				JOINT LeftFoot
				{
					OFFSET 2.562200 -7.039590 0.000000
					CHANNELS 3 Zrotation Yrotation Xrotation
					JOINT LeftToeBase
					{
						OFFSET 0.157640 -0.433110 2.322550
						CHANNELS 3 Zrotation Yrotation Xrotation
						End Site
						{
							OFFSET 0.000000 0.000000 0.000000
						}
					}
				}
			}
		}
	}
	JOINT RHipJoint
	{
		OFFSET 0.000000 0.000000 0.000000
		CHANNELS 3 Zrotation Yrotation Xrotation
		JOINT RightUpLeg
		{
			OFFSET -1.305520 -1.794630 0.839290
			CHANNELS 3 Zrotation Yrotation Xrotation
			JOINT RightLeg
			{
				OFFSET -2.542530 -6.985550 0.000000
				CHANNELS 3 Zrotation Yrotation Xrotation
				JOINT RightFoot
				{
					OFFSET -2.568260 -7.056230 0.000000
					CHANNELS 3 Zrotation Yrotation Xrotation
					JOINT RightToeBase
					{
						OFFSET -0.164730 -0.452590 2.363150
						CHANNELS 3 Zrotation Yrotation Xrotation
						End Site
						{
							OFFSET 0.000000 0.000000 0.000000
						}
					}
				}
			}
		}
	}
	JOINT LowerBack
	{
		OFFSET 0.000000 0.000000 0.000000
		CHANNELS 3 Zrotation Yrotation Xrotation
		JOINT Spine
		{
			OFFSET 0.028270 2.035590 -0.193380
			CHANNELS 3 Zrotation Yrotation Xrotation
			JOINT Spine1
			{
				OFFSET 0.056720 2.048850 -0.042750
				CHANNELS 3 Zrotation Yrotation Xrotation
				JOINT Neck
				{
					OFFSET 0.000000 0.000000 0.000000
					CHANNELS 3 Zrotation Yrotation Xrotation
					JOINT Neck1
					{
						OFFSET -0.054170 1.746240 0.172020
						CHANNELS 3 Zrotation Yrotation Xrotation
						JOINT Head
						{
							OFFSET 0.104070 1.761360 -0.123970
							CHANNELS 3 Zrotation Yrotation Xrotation
							End Site
							{
								OFFSET 0.000000 0.000000 0.000000
							}
						}
					}
				}
				JOINT LeftShoulder
				{
					OFFSET 0.000000 0.000000 0.000000
					CHANNELS 3 Zrotation Yrotation Xrotation
					JOINT LeftArm
					{
						OFFSET 3.362410 1.200890 -0.311210
						CHANNELS 3 Zrotation Yrotation Xrotation
						JOINT LeftForeArm
						{
							OFFSET 4.983000 -0.000000 -0.000000
							CHANNELS 3 Zrotation Yrotation Xrotation
							JOINT LeftHand
							{
								OFFSET 3.483560 -0.000000 -0.000000
								CHANNELS 3 Zrotation Yrotation Xrotation
								JOINT LeftFingerBase
								{
									OFFSET 0.000000 0.000000 0.000000
									CHANNELS 3 Zrotation Yrotation Xrotation
									JOINT LeftHandIndex1
									{
										OFFSET 0.715260 -0.000000 -0.000000
										CHANNELS 3 Zrotation Yrotation Xrotation
										End Site
										{
											OFFSET 0.000000 0.000000 0.000000
										}
									}
								}
								JOINT LThumb
								{
									OFFSET 0.000000 0.000000 0.000000
									CHANNELS 3 Zrotation Yrotation Xrotation
									End Site
									{
										OFFSET 0.000000 0.000000 0.000000
									}
								}
							}
						}
					}
				}
				JOINT RightShoulder
				{
					OFFSET 0.000000 0.000000 0.000000
					CHANNELS 3 Zrotation Yrotation Xrotation
					JOINT RightArm
					{
						OFFSET -3.136600 1.374050 -0.404650
						CHANNELS 3 Zrotation Yrotation Xrotation
						JOINT RightForeArm
						{
							OFFSET -5.241900 -0.000000 -0.000000
							CHANNELS 3 Zrotation Yrotation Xrotation
							JOINT RightHand
							{
								OFFSET -3.444170 -0.000000 -0.000000
								CHANNELS 3 Zrotation Yrotation Xrotation
								JOINT RightFingerBase
								{
									OFFSET 0.000000 0.000000 0.000000
									CHANNELS 3 Zrotation Yrotation Xrotation
									JOINT RightHandIndex1
									{
										OFFSET -0.622530 -0.000000 -0.000000
										CHANNELS 3 Zrotation Yrotation Xrotation
										End Site
										{
											OFFSET 0.000000 0.000000 0.000000
										}
									}
								}
								JOINT RThumb
								{
									OFFSET 0.000000 0.000000 0.000000
									CHANNELS 3 Zrotation Yrotation Xrotation
									End Site
									{
										OFFSET 0.000000 0.000000 0.000000
									}
								}
							}
						}
					}
				}
			}
		}
	}
}
MOTION
Frames: 7
Frame Time: 0.008333
25.909025 19.652271 9.269821 -2.379972 0.438435 6.654951 -17.201818 3.050074 5.862042 3.748810 -5.840073 -22.641124 -27.507358 -30.063715 52.530959 -20.612799 58.286796 -21.439991 -1.011541 0.461587 -6.891460 14.962699 -3.280404 6.598856 -3.500358 8.923038 -21.971874 36.411518 32.643123 62.654874 34.256516 -55.766346 -36.997003 -0.103178 -0.338406 -6.696469 2.824159 0.227566 -3.139356 0.785565 0.142833 -4.241798 -0.425168 -0.028791 2.732429 -0.708058 0.592695 -3.457225 7.830668 -5.026976 15.414566 -3.889677 -3.300788 -19.085294 -3.569399 6.246894 4.309552 -37.096552 13.865548 20.179282 0.529976 -1.213653 -11.377000 9.100222 -5.080770 -12.224524 -3.747338 2.063116 -0.000000 0.000000 0.000000 0.000000 0.000000 0.000000 0.000000 3.818796 -6.803958 2.914932 37.265375 -22.522447 20.333053 0.035444 2.761152 -8.672083 -15.440718 -0.967512 -8.273431 6.310130 0.880080 -0.000000 0.000000 0.000000 0.000000 0.000000 0.000000 0.000000
25.892064 19.359516 9.262160 -2.505883 0.318668 6.648548 -17.070441 3.152224 5.666927 2.461078 -2.776772 -24.497091 -32.484398 -32.137006 60.091963 -22.436076 57.969707 -28.434464 -0.454016 0.398626 -3.246863 14.848823 -3.313955 6.584596 -3.770866 10.377012 -22.206786 37.243333 29.516688 63.809743 32.511143 -52.231810 -43.474862 -0.219675 -0.846031 -7.361318 2.610454 0.283591 -2.311037 0.777062 0.234573 -4.239369 -0.260402 0.065366 2.513629 -0.532120 0.708931 -3.666048 8.072628 -5.202147 14.720451 -5.257087 -3.487038 -18.068289 -3.837429 5.553667 4.176938 -36.892912 13.435980 19.435796 0.115031 -1.333063 -10.470741 9.126946 -4.794735 -11.236899 -3.813064 1.903117 -0.000000 0.000000 0.000000 0.000000 0.000000 0.000000 0.000000 4.076686 -6.142426 2.849403 37.954449 -21.718825 20.161653 0.055745 2.890962 -8.438313 -15.007342 -0.577433 -8.134715 6.123913 0.664115 -0.000000 0.000000 0.000000 0.000000 0.000000 0.000000 0.000000
25.869772 19.077988 9.257832 -2.483968 -0.196028 6.387150 -16.906525 3.360639 5.450942 1.373603 0.067304 -26.378613 -40.384544 -33.206939 69.728794 -24.050916 59.639468 -36.316950 -0.107365 0.522179 -1.097945 14.827852 -3.634896 6.399381 -3.885556 11.385775 -22.178994 34.503226 26.136501 62.015505 30.136136 -47.363066 -46.205026 -0.037278 -0.086569 -4.211104 2.273489 0.372942 -1.060533 0.763403 0.373470 -4.235671 -0.170358 0.196953 2.257782 -0.608627 0.700741 -3.793625 7.903689 -5.062130 14.022118 -4.121180 -3.430365 -18.091359 -4.049222 5.012424 3.860924 -37.061019 13.114341 20.506500 0.251925 -1.365203 -11.100554 9.035110 -5.085862 -11.901026 -3.704804 2.091593 -0.000000 0.000000 0.000000 0.000000 0.000000 0.000000 0.000000 4.457736 -5.485388 2.875686 38.583612 -20.386900 19.289634 0.310744 2.856312 -7.738325 -14.678489 -0.081118 -7.559780 5.983272 0.406750 -0.000000 0.000000 0.000000 0.000000 0.000000 0.000000 0.000000
25.847530 18.819460 9.239411 -2.455004 -0.049250 5.999179 -16.855872 3.790307 4.991419 -0.028225 2.784842 -27.999096 -46.536294 -33.215539 78.073207 -22.372042 61.679971 -39.869530 -0.085201 0.847037 -1.190461 14.761288 -3.681306 6.438334 -3.620438 10.828477 -22.946683 41.812548 27.112899 69.130042 31.860490 -52.066660 -54.303796 -0.088589 -0.293387 -1.563477 2.010312 0.254324 0.321811 0.770536 0.296396 -4.238235 -0.124862 0.106246 2.154809 -0.640610 0.712259 -4.145073 7.798442 -4.913460 13.285196 -3.506782 -3.354606 -17.606105 -4.629120 4.367514 3.697274 -36.962876 12.562357 19.777438 -0.080286 -1.397985 -10.708166 9.397996 -4.790342 -11.457098 -3.884519 1.963949 -0.000000 0.000000 0.000000 0.000000 0.000000 0.000000 0.000000 5.123566 -4.964411 3.112633 39.119220 -18.430994 17.017817 0.863301 2.645834 -6.478528 -14.235523 0.552557 -6.463429 5.819369 0.144740 -0.000000 0.000000 0.000000 0.000000 0.000000 0.000000 0.000000
25.830549 18.615860 9.210216 -2.110866 -1.025615 5.282596 -16.996358 4.759358 5.024278 -1.034221 4.481631 -29.321228 -49.902804 -32.090402 82.931156 -23.760255 61.487255 -45.770850 0.190589 -0.129945 1.367278 15.240955 -5.750078 5.192834 -2.072989 6.403128 -23.426346 -1.109056 -0.060426 40.783219 17.276446 -5.061553 -13.942314 -0.299551 -1.073386 -3.053114 1.433972 0.412647 2.055986 0.751195 0.509533 -4.231870 -0.098866 0.314316 1.992022 -0.710172 0.738321 -4.481307 7.740872 -4.814919 12.878496 -3.121299 -3.305557 -17.936718 -4.963592 3.699030 3.416919 -37.282355 12.025945 17.303272 -0.727870 -1.309744 -10.017481 9.849557 -4.910038 -10.801236 -4.116888 2.014583 -0.000000 0.000000 0.000000 0.000000 0.000000 0.000000 0.000000 5.559888 -4.121700 3.354072 39.883005 -16.415127 13.343447 1.834465 2.359913 -4.551359 -13.355849 1.174880 -4.690195 5.519357 -0.063037 -0.000000 0.000000 0.000000 0.000000 0.000000 0.000000 0.000000
25.816838 18.469311 9.175349 -2.009781 -1.043492 5.302624 -16.902338 4.820584 4.774794 -1.393579 4.887381 -30.057612 -49.234640 -30.651396 82.859070 -21.894736 60.636616 -46.189228 0.132899 -0.987784 1.772507 15.309502 -5.894520 4.757277 -0.616660 3.559675 -25.132831 -3.282462 0.673057 42.717046 15.056514 -2.141418 -14.257434 -0.398809 -1.396711 -1.769473 1.186656 0.338607 2.953075 0.755374 0.461499 -4.233041 -0.163204 0.261479 1.957878 -0.867651 0.683577 -4.974134 7.500185 -4.631501 12.645651 -1.749166 -3.168657 -18.151180 -5.388745 3.067856 3.550335 -38.004178 10.779990 15.383992 -0.929126 -0.810791 -9.523815 9.915296 -4.898016 -10.312022 -4.137340 2.035896 -0.000000 0.000000 0.000000 0.000000 0.000000 0.000000 0.000000 6.081884 -3.497785 3.519879 40.728886 -14.097714 9.399630 2.736390 1.875372 -2.439393 -13.059578 1.293011 -2.617911 5.436766 -0.050510 -0.000000 0.000000 0.000000 0.000000 0.000000 0.000000 0.000000
25.812209 18.374645 9.144730 -1.972462 -1.103956 5.402514 -16.790086 4.777058 4.538557 -1.483601 5.287267 -30.568412 -48.043574 -29.482088 81.674344 -19.663787 59.056641 -45.527644 0.361918 0.134106 2.249422 15.321213 -5.839346 4.532185 -0.211806 2.966861 -25.607909 -3.447905 0.781074 43.490222 14.514498 -1.794172 -16.062273 -0.380731 -1.325689 -1.558775 1.000958 0.275066 3.582374 0.759861 0.415439 -4.233897 -0.079351 0.221144 1.837181 -0.886336 0.705995 -5.313078 7.491727 -4.607334 12.639829 -1.798894 -3.151958 -18.584007 -5.772348 2.352707 3.374776 -38.333516 10.072093 9.953686 -2.709203 -0.986702 -6.511625 10.193698 -4.388182 -7.206035 -4.480416 1.622986 -0.000000 0.000000 0.000000 0.000000 0.000000 0.000000 0.000000 6.568729 -2.832397 3.741506 41.402624 -11.800671 5.812422 3.349387 1.530606 -1.347215 -13.854340 0.777064 -1.434732 5.746220 0.183491 -0.000000 0.000000 0.000000 0.000000 0.000000 0.000000 0.000000
